<svg width="33" height="33" viewBox="0 0 33 33" fill="none" xmlns="http://www.w3.org/2000/svg">
<path d="M1.65107 24.2009C4.53457 21.3174 4.34983 21.4955 4.42901 21.4362L12.0699 15.7945L9.10727 12.8318C6.72524 13.683 4.0265 13.0958 2.21194 11.2812C0.232414 9.30169 -0.282265 6.27962 0.918644 3.75903C1.20238 3.17177 1.98099 3.0398 2.43628 3.49509L4.87769 5.9365C5.2472 6.30601 5.84766 6.30601 6.21058 5.9365C6.58009 5.56699 6.58009 4.97313 6.21058 4.60362L3.76917 2.16221C3.30728 1.70033 3.43925 0.921715 4.0331 0.644582C6.55369 -0.562926 9.58236 -0.0416499 11.5553 1.93787C13.3698 3.75243 13.9571 6.45118 13.1059 8.8332L16.5239 12.2512C17.2167 11.7101 16.2995 12.6339 22.8583 5.68576L22.1721 4.99953C21.7366 4.56403 21.829 3.83821 22.3569 3.52149L27.4178 0.486222C28.7441 -0.312185 30.4333 -0.101035 31.5286 0.9943C32.624 2.08964 32.8285 3.77883 32.0367 5.10511L29.0015 10.1661C28.6847 10.694 27.9589 10.7797 27.5234 10.3508L26.8768 9.70419C20.3575 16.6193 21.2153 15.6757 20.7007 16.3422C20.6875 16.3554 20.6743 16.3686 20.6611 16.3884L23.6897 19.417C26.0718 18.5658 28.7705 19.1531 30.5851 20.9677C32.5646 22.9472 33.0793 25.9693 31.8784 28.4898C31.5946 29.0771 30.816 29.2091 30.3607 28.7538L27.9193 26.3124C27.5498 25.9429 26.9494 25.9429 26.5864 26.3124C26.2169 26.6819 26.2169 27.2757 26.5864 27.6453L29.0278 30.0867C29.4897 30.5486 29.3512 31.3272 28.7639 31.6043C27.8599 32.0398 26.8834 32.2509 25.92 32.2509C24.2044 32.2509 22.502 31.5845 21.2351 30.3176C19.4206 28.503 18.8333 25.8043 19.6845 23.4223L17.0979 20.8357L11.0736 28.1599C11.0274 28.2127 11.1792 28.061 8.48702 30.7531C7.50386 31.7363 6.20397 32.2443 4.91728 32.2443C3.97371 32.2443 3.04994 31.9672 2.26473 31.4063C-0.130493 29.671 -0.414227 26.2596 1.65107 24.2009ZM26.1575 7.67848C26.5205 7.28918 27.1341 7.28258 27.5102 7.65869L27.9919 8.14037L30.4069 4.12194C30.7566 3.54128 30.6643 2.80226 30.1826 2.32058C29.7009 1.83889 28.9619 1.75311 28.3812 2.09623L24.3628 4.51125L24.8445 4.99293C25.2074 5.35584 25.214 5.9365 24.8643 6.30602C17.3355 14.2901 18.5166 13.0892 17.8765 13.5907L19.3084 15.0225C19.8033 14.3825 18.6486 15.6428 26.1575 7.67848ZM21.4529 22.5117C21.7366 22.7954 21.8092 23.2243 21.6376 23.5872C20.7798 25.3886 21.1494 27.5463 22.5614 28.9649C23.4654 29.8689 24.6795 30.3506 25.9068 30.3506C26.1245 30.3506 26.3489 30.3374 26.5666 30.3044L25.2338 28.9715C24.1252 27.863 24.1252 26.0748 25.2338 24.9663C26.3357 23.8644 28.1371 23.8644 29.239 24.9663L30.5719 26.2992C30.7764 24.8541 30.3013 23.3629 29.239 22.2939C27.8269 20.8819 25.6693 20.5124 23.8613 21.3702C23.4984 21.5417 23.0695 21.4691 22.7858 21.1854L11.3243 9.72399C11.0406 9.44026 10.968 9.01136 11.1396 8.64845C11.9974 6.84708 11.6279 4.68941 10.2158 3.27075C9.14686 2.20181 7.65563 1.73332 6.21058 1.93787L7.54345 3.27075C8.07792 3.80522 8.37484 4.51785 8.37484 5.27666C8.37484 6.03548 8.07792 6.74151 7.54345 7.28258C6.44152 8.38451 4.64016 8.38451 3.53822 7.28258L2.20533 5.9497C2.00078 7.39475 2.47588 8.88599 3.53822 9.95493C4.95028 11.367 7.10796 11.7365 8.91592 10.8787C9.27883 10.7072 9.70772 10.7797 9.99145 11.0635L21.4529 22.5117ZM15.7453 19.4764L13.416 17.1472L11.0406 18.9024L13.8779 21.7397C15.8112 19.3906 15.6859 19.5358 15.7453 19.4764ZM3.35346 29.8557C4.4554 30.6475 6.07861 30.4562 7.13435 29.4004L9.62854 26.9062L12.6704 23.2045L9.50317 20.0373L5.60351 22.9142L2.98395 25.5338C1.78964 26.7281 1.86222 28.7802 3.35346 29.8557Z" fill="#28D2E9"/>
</svg>
