<svg width="35" height="34" viewBox="0 0 35 34" fill="none" xmlns="http://www.w3.org/2000/svg">
<path d="M0.948948 26.4942C1.45042 25.9928 10.0152 17.428 10.5496 16.8936L1.53621 7.88014C0.374889 6.71882 0.36829 4.84488 1.52961 3.68356L4.34053 0.872638C5.49525 -0.282083 7.37579 -0.282083 8.53051 0.872638L17.5505 9.89266C17.7551 9.68811 26.3726 1.07059 27.1512 0.291979C27.5405 -0.0973264 28.1674 -0.0973264 28.5501 0.291979L34.1521 5.89402C34.5414 6.28333 34.5414 6.91018 34.1521 7.29288L24.5514 16.8936L31.2818 23.6305C31.3874 23.7361 31.4732 23.8747 31.5194 24.0198L34.3831 32.4856C34.5018 32.8419 34.4095 33.2312 34.1455 33.5017C33.8816 33.7657 33.4857 33.8581 33.1294 33.7393L24.6636 30.8756C24.5184 30.8294 24.3865 30.7436 24.2743 30.638L17.5373 23.9011L7.93666 33.5017C7.54735 33.891 6.9205 33.891 6.5378 33.5017L0.935753 27.8997C0.559643 27.5104 0.559643 26.8835 0.948948 26.4942ZM7.13165 2.2781C6.74895 1.89539 6.1221 1.89539 5.73939 2.2781L2.92847 5.08902C2.54576 5.47172 2.54576 6.09857 2.93507 6.48128L4.33393 7.88014L8.53051 3.67696L7.13165 2.2781ZM9.93597 5.07582L5.73939 9.2724L7.13825 10.6713L11.3348 6.47468L9.93597 5.07582ZM32.0538 6.58685L27.8572 2.39027L25.0595 5.18799L25.7523 5.88742C26.1417 6.27673 26.1417 6.90358 25.7523 7.28629C25.363 7.67559 24.7362 7.67559 24.3535 7.28629L23.6541 6.58685L22.2552 7.98572L22.9546 8.68515C23.3439 9.07445 23.3439 9.7013 22.9546 10.084C22.5653 10.4733 21.9385 10.4733 21.5558 10.084L20.8563 9.38458L18.9494 11.2915L23.146 15.4881L32.0538 6.58685ZM12.7337 7.88014L11.3348 9.279L27.7847 25.7288L29.1835 24.33C28.6358 23.7823 13.5387 8.68515 12.7337 7.88014ZM31.8823 31.2319L30.1469 26.1643C29.85 26.4612 27.4151 28.8961 26.8147 29.4965L31.8823 31.2319ZM24.9869 28.5265L26.3858 27.1277L9.93597 10.6779L8.53711 12.0767C8.91982 12.466 24.8088 28.3484 24.9869 28.5265ZM7.24383 31.3969L16.1517 22.489L11.9551 18.2924L10.0481 20.1994L10.7476 20.8988C11.1369 21.2881 11.1369 21.9149 10.7476 22.2977C10.3583 22.687 9.73142 22.687 9.34872 22.2977L8.64928 21.5982L7.25042 22.9971L7.94986 23.6965C8.33916 24.0858 8.33916 24.7127 7.94986 25.0954C7.56055 25.4847 6.9337 25.4847 6.55099 25.0954L5.85156 24.3959L3.05384 27.1937L7.24383 31.3969Z" fill="#28D2E9"/>
</svg>
