<svg width="118" height="140" viewBox="0 0 118 140" fill="none" xmlns="http://www.w3.org/2000/svg">
<path d="M117.028 36.575C116.97 32.84 116.882 29.3093 116.882 25.8953C116.882 23.2107 114.723 21.0514 112.038 21.0514C91.3208 21.0514 75.5346 15.0988 62.3745 2.2889C60.507 0.450576 57.5015 0.450576 55.6048 2.2889C42.4448 15.0696 26.6586 21.0514 5.941 21.0514C3.25647 21.0514 1.09718 23.2107 1.09718 25.8953C1.09718 29.3093 1.03882 32.84 0.951277 36.575C0.280145 71.3572 -0.624438 119.008 57.3848 139.112C57.91 139.288 58.4353 139.375 58.9605 139.375C59.4857 139.375 60.0401 139.288 60.5362 139.112C118.604 119.008 117.699 71.3572 117.028 36.575ZM58.9897 129.396C9.2383 111.333 9.99698 71.7366 10.6681 36.7501C10.6973 34.6492 10.7556 32.6066 10.7848 30.6224C30.1893 29.8053 45.7129 23.911 59.0189 12.3559C72.2956 23.9402 87.8484 29.8053 107.253 30.6224C107.282 32.6066 107.311 34.6492 107.37 36.7501C108.012 71.7366 108.741 111.333 58.9897 129.396Z" fill="#28D2E9"/>
<path d="M75.6804 53.3231L52.2782 76.7253L42.2988 66.7458C40.4021 64.8491 37.3382 64.8491 35.4416 66.7458C33.5449 68.6425 33.5449 71.7063 35.4416 73.603L48.8642 87.0257C49.798 87.9594 51.0527 88.4555 52.2782 88.4555C53.5038 88.4555 54.7585 87.9886 55.6923 87.0257L82.5376 60.1804C84.4343 58.2837 84.4343 55.2198 82.5376 53.3231C80.6409 51.4265 77.577 51.4265 75.6804 53.3231Z" fill="#28D2E9"/>
</svg>
