<svg width="114" height="140" viewBox="0 0 114 140" fill="none" xmlns="http://www.w3.org/2000/svg">
<path d="M113.501 31.7604L110.437 22.598C109.27 19.0964 106.002 16.7621 102.325 16.7621H76.5884V8.3875C76.5884 4.2148 73.1744 0.800781 69.0017 0.800781H45.4537C41.281 0.800781 37.867 4.2148 37.867 8.3875V16.7621H12.1305C8.45386 16.7621 5.18576 19.0964 4.01857 22.598L0.954705 31.7604C0.254393 33.8614 0.604535 36.1666 1.88844 37.9465C3.17235 39.7265 5.2441 40.8061 7.46175 40.8061H10.6715L17.7038 127.878C18.2291 134.327 23.7148 139.404 30.1927 139.404H85.6633C92.1412 139.404 97.627 134.356 98.1522 127.878L105.185 40.8061H106.964C109.153 40.8061 111.254 39.7265 112.538 37.9465C113.822 36.1666 114.201 33.8322 113.501 31.7604ZM45.9789 8.88355H68.4765V16.7329H45.9789V8.88355ZM90.0694 127.207C89.8944 129.483 87.9685 131.263 85.6925 131.263H30.2219C27.9459 131.263 26.02 129.483 25.845 127.207L18.8418 40.777H97.0726L90.0694 127.207ZM9.24171 32.665L11.7512 25.1366C11.8095 24.9616 11.9846 24.8448 12.1597 24.8448H102.325C102.5 24.8448 102.675 24.9616 102.733 25.1366L105.243 32.665H9.24171Z" fill="#28D2E9"/>
<path d="M77.1137 126.915C77.172 126.915 77.2596 126.915 77.3179 126.915C79.4772 126.915 81.2572 125.222 81.3739 123.063L85.1964 49.8511C85.3132 47.6043 83.5916 45.7076 81.3447 45.5909C79.0979 45.4742 77.2012 47.1958 77.0845 49.4426L73.2619 122.654C73.1452 124.901 74.8669 126.798 77.1137 126.915Z" fill="#28D2E9"/>
<path d="M33.2565 123.093C33.3732 125.253 35.1532 126.945 37.3125 126.945C37.4 126.945 37.4583 126.945 37.5459 126.945C39.7927 126.828 41.5143 124.902 41.3684 122.656L37.3708 49.4437C37.2541 47.1969 35.3282 45.4753 33.0814 45.6212C30.8346 45.7379 29.113 47.6637 29.2589 49.9106L33.2565 123.093Z" fill="#28D2E9"/>
<path d="M57.2716 126.917C59.5184 126.917 61.3275 125.108 61.3275 122.861V49.6495C61.3275 47.4026 59.5184 45.5935 57.2716 45.5935C55.0247 45.5935 53.2156 47.4026 53.2156 49.6495V122.861C53.2156 125.108 55.0247 126.917 57.2716 126.917Z" fill="#28D2E9"/>
</svg>
