<svg width="34" height="35" viewBox="0 0 34 35" fill="none" xmlns="http://www.w3.org/2000/svg">
<path d="M10.2514 13.8911C10.9773 13.8911 12.5147 14.386 13.9399 15.0986C13.3461 13.1851 13.2603 10.9086 13.2603 10.869C13.2603 9.17325 14.9495 7.80078 17.028 7.80078C19.1065 7.80078 20.7957 9.17985 20.7957 10.869C20.7957 11.5949 20.3008 13.1389 19.5816 14.5641C21.4951 13.9703 23.765 13.8911 23.798 13.8911C25.4937 13.8911 26.8662 15.5803 26.8662 17.6588C26.8662 19.7373 25.4871 21.4265 23.798 21.4265C23.0787 21.4265 21.5479 20.9382 20.1292 20.2256C20.7165 22.1325 20.7957 24.3826 20.7957 24.4222C20.7957 26.118 19.1065 27.4904 17.028 27.4904C14.9495 27.4904 13.2603 26.1114 13.2603 24.4222C13.2603 23.7095 13.7486 22.1787 14.4546 20.76C12.5477 21.3473 10.2844 21.4265 10.2514 21.4265C8.55565 21.4265 7.18318 19.7373 7.18318 17.6588C7.18318 15.5803 8.56224 13.8911 10.2514 13.8911ZM19.5156 17.6588V17.6852C20.8419 18.6881 23.2239 19.5657 23.798 19.5657C24.372 19.5657 25.0055 18.7805 25.0055 17.6588C25.0055 16.5371 24.372 15.7519 23.798 15.7519C22.6564 15.7519 20.3536 16.128 19.2912 16.6426C19.4364 16.966 19.5156 17.3091 19.5156 17.6588ZM17.028 25.6231C18.1497 25.6231 18.9349 24.9896 18.9349 24.4156C18.9349 23.2806 18.5588 20.991 18.0441 19.922C17.7142 20.0738 17.3579 20.1464 16.9884 20.1398C15.992 21.4661 15.1211 23.8415 15.1211 24.409C15.1211 24.9896 15.9063 25.6231 17.028 25.6231ZM17.6548 17.6456C17.6548 17.3025 17.3777 17.0188 17.028 17.0188C16.6849 17.0188 16.4011 17.2959 16.4011 17.6456C16.4011 17.9887 16.6783 18.2724 17.028 18.2724C17.3711 18.2724 17.6548 17.9887 17.6548 17.6456ZM16.025 15.3889C16.3352 15.2504 16.6783 15.1778 17.028 15.1778H17.0412C18.0442 13.8581 18.9283 11.4563 18.9283 10.8756C18.9283 10.3016 18.1431 9.66813 17.0214 9.66813C15.8997 9.66813 15.1145 10.3016 15.1145 10.8756C15.1211 12.1095 15.5368 14.3596 16.025 15.3889ZM10.258 19.5657C11.3996 19.5657 13.7024 19.1896 14.7647 18.6749C14.6196 18.3582 14.547 18.0151 14.547 17.6654V17.639C13.2207 16.636 10.8387 15.7585 10.2646 15.7585C9.68397 15.7519 9.05052 16.5371 9.05052 17.6588C9.05052 18.7805 9.68397 19.5657 10.258 19.5657Z" fill="#28D2E9"/>
<path d="M17.0282 27.5416C19.1397 27.5416 20.8552 26.1427 20.8552 24.4139C20.8552 24.3941 20.7893 22.2364 20.2218 20.3229C21.5811 20.9894 23.0723 21.471 23.7981 21.471C25.5203 21.471 26.9258 19.7555 26.9258 17.644C26.9258 15.5325 25.5269 13.8169 23.7981 13.8169C23.7783 13.8169 21.6075 13.8829 19.6873 14.4569C20.367 13.0845 20.8487 11.5866 20.8487 10.8542C20.8487 9.13202 19.1331 7.72656 17.0216 7.72656C14.9101 7.72656 13.1945 9.12542 13.1945 10.8542C13.1945 10.874 13.2737 13.0713 13.8412 14.9782C12.4687 14.3052 10.9708 13.8235 10.245 13.8235C8.52284 13.8235 7.11738 15.5391 7.11738 17.6506C7.11738 19.762 8.51624 21.4776 10.245 21.4776C10.2648 21.4776 12.4621 21.3985 14.3426 20.8442C13.6762 22.2101 13.2011 23.6947 13.2011 24.4139C13.2077 26.1427 14.9233 27.5416 17.0282 27.5416ZM20.037 20.1118L20.0766 20.2371C20.6705 22.1573 20.7431 24.3941 20.7431 24.4205C20.7431 26.0833 19.0803 27.4294 17.0348 27.4294C14.9893 27.4294 13.3265 26.0767 13.3265 24.4205C13.3265 23.6947 13.828 22.1639 14.5142 20.7848L14.5736 20.666L14.4482 20.7056C12.5479 21.2929 10.2846 21.3721 10.2582 21.3721C8.59542 21.3721 7.24934 19.7093 7.24934 17.6638C7.24934 15.6183 8.60201 13.9555 10.2582 13.9555C10.9906 13.9555 12.5281 14.4635 13.9203 15.1564L14.0391 15.2158L13.9995 15.0904C13.4122 13.19 13.3199 10.9004 13.3199 10.874C13.3199 9.2112 14.9827 7.86513 17.0282 7.86513C19.0737 7.86513 20.7365 9.2178 20.7365 10.874C20.7365 11.613 20.2284 13.157 19.529 14.5427L19.4696 14.6615L19.595 14.6219C21.4953 14.0346 23.7717 13.9489 23.7981 13.9489C25.4609 13.9489 26.807 15.6117 26.807 17.6572C26.807 19.7027 25.4543 21.3655 23.7981 21.3655C23.0657 21.3655 21.5349 20.864 20.1558 20.1711L20.037 20.1118ZM17.0282 25.6742C18.1829 25.6742 18.9945 25.0078 18.9945 24.4073C18.9945 23.2064 18.592 20.9234 18.0971 19.8874L18.0707 19.8346L18.0179 19.8544C17.6946 19.9996 17.3515 20.0722 16.9886 20.0656H16.9622L16.9424 20.0854C15.9526 21.4051 15.0619 23.8135 15.0619 24.3875C15.0685 25.0078 15.8735 25.6742 17.0282 25.6742ZM18.0179 19.993C18.4996 21.0355 18.8823 23.2394 18.8823 24.4139C18.8823 24.9616 18.1235 25.5686 17.0348 25.5686C15.946 25.5686 15.1872 24.9616 15.1872 24.4139C15.1872 23.8531 16.0582 21.5106 17.0282 20.2041C17.0348 20.2041 17.0414 20.2041 17.048 20.2041C17.3779 20.1909 17.7078 20.125 18.0179 19.993ZM10.2582 19.6169C11.4723 19.6169 13.762 19.2144 14.7913 18.7195L14.8375 18.6931L14.8177 18.6403C14.6791 18.3302 14.6066 18.0003 14.6066 17.6572V17.6044L14.5868 17.5846C13.2407 16.5684 10.8653 15.6908 10.2714 15.6908C10.0471 15.6908 9.80293 15.7964 9.59837 16.0076C9.22227 16.3771 9.00452 16.9907 9.00452 17.6506C8.99792 18.8119 9.66436 19.6169 10.2582 19.6169ZM14.6923 18.6469C13.6564 19.1286 11.4459 19.5113 10.2582 19.5113C9.71055 19.5113 9.10349 18.7525 9.10349 17.6638C9.10349 17.0369 9.31464 16.4496 9.66436 16.0999C9.84911 15.9152 10.0603 15.8162 10.2582 15.8162C10.8257 15.8162 13.1813 16.6938 14.4878 17.6704C14.4944 18.0069 14.5604 18.3368 14.6923 18.6469ZM23.7981 19.6169C24.3986 19.6169 25.065 18.8119 25.065 17.6506C25.065 16.4958 24.3986 15.6842 23.7981 15.6842C22.584 15.6842 20.2944 16.0867 19.265 16.5816L19.2189 16.608L19.2386 16.6608C19.3838 16.9841 19.4564 17.3206 19.4564 17.6572V17.7099L19.4762 17.7297C20.8289 18.7393 23.2043 19.6169 23.7981 19.6169ZM23.7981 15.803C24.3458 15.803 24.9529 16.5618 24.9529 17.6506C24.9529 18.7393 24.3458 19.4981 23.7981 19.4981C23.2307 19.4981 20.8816 18.6205 19.5752 17.644C19.5752 17.314 19.5026 16.9775 19.3706 16.6542C20.4 16.1857 22.617 15.803 23.7981 15.803ZM17.0282 18.3236C17.4043 18.3236 17.7144 18.0201 17.7144 17.6374C17.7144 17.2547 17.4109 16.9511 17.0282 16.9511C16.6455 16.9511 16.3419 17.2547 16.3419 17.6374C16.3419 18.0201 16.6521 18.3236 17.0282 18.3236ZM17.0282 17.0699C17.3449 17.0699 17.5956 17.3272 17.5956 17.6374C17.5956 17.9475 17.3383 18.2048 17.0282 18.2048C16.7181 18.2048 16.4607 17.9475 16.4607 17.6374C16.4607 17.3272 16.7115 17.0699 17.0282 17.0699ZM15.9988 15.4599L16.0516 15.4401C16.3551 15.3081 16.6917 15.2355 17.0348 15.2355H17.0744L17.0942 15.2158C18.0971 13.9027 18.9945 11.4679 18.9945 10.8806C18.9945 10.2801 18.1895 9.6137 17.0282 9.6137C15.8669 9.6137 15.0619 10.2801 15.0619 10.8806C15.0685 12.0749 15.4775 14.3646 15.979 15.4203L15.9988 15.4599ZM17.015 15.1168C16.6851 15.1168 16.3551 15.1828 16.0516 15.3081C15.5699 14.2458 15.174 12.0287 15.1674 10.8674C15.1674 10.3263 15.9262 9.71928 17.015 9.71928C18.1037 9.71928 18.8625 10.3263 18.8625 10.8674C18.8757 11.4481 17.9981 13.8103 17.015 15.1168Z" fill="#28D2E9"/>
<path d="M3.0603 0.882812H30.9979C32.5354 0.882812 33.7891 2.13651 33.7891 3.67394V31.605C33.7891 33.149 32.5354 34.4027 30.9979 34.4027H3.06689C1.52947 34.4027 0.275768 33.149 0.275768 31.6116V3.67394C0.269169 2.13651 1.52287 0.882812 3.0603 0.882812ZM3.0603 32.542H30.9979C31.5126 32.542 31.9283 32.1263 31.9283 31.6116V3.67394C31.9283 3.15926 31.5126 2.74356 30.9979 2.74356H3.06689C2.55222 2.74356 2.13652 3.15926 2.13652 3.67394V31.6116H2.12992C2.12992 32.1263 2.54562 32.542 3.0603 32.542Z" fill="#28D2E9"/>
<path d="M3.06586 34.4563H30.9969C32.5673 34.4563 33.8474 33.1762 33.8474 31.5992V3.67473C33.8474 2.10431 32.5673 0.824219 30.9969 0.824219H3.05926C2.30044 0.824219 1.58122 1.12115 1.04675 1.66222C0.512276 2.20329 0.215347 2.91591 0.221947 3.67473V31.6124C0.221947 33.1828 1.49544 34.4563 3.06586 34.4563ZM30.9969 0.936392C32.5079 0.936392 33.7286 2.1637 33.7286 3.66813V31.5992C33.7286 33.1102 32.5013 34.3375 30.9969 34.3375H3.06586C1.55482 34.3375 0.327518 33.1102 0.327518 31.6058V3.67473C0.327518 2.94891 0.604652 2.26267 1.11933 1.748C1.634 1.22672 2.32024 0.942989 3.05266 0.942989H30.9969V0.936392ZM3.05926 32.5955H30.9969C31.538 32.5955 31.9867 32.1534 31.9867 31.6058V3.67473C31.9867 3.13366 31.5446 2.68497 30.9969 2.68497H3.06586C2.52479 2.68497 2.0761 3.12706 2.0761 3.67473V31.553L2.0695 31.6124C2.0761 32.1534 2.51819 32.5955 3.05926 32.5955ZM30.9969 2.79714C31.4786 2.79714 31.8679 3.18645 31.8679 3.66813V31.6058C31.8679 32.0875 31.4786 32.4768 30.9969 32.4768H3.05926C2.59077 32.4768 2.20806 32.1073 2.18827 31.6454L2.19487 31.5992V3.67473C2.19487 3.19305 2.58417 2.80374 3.07245 2.80374H30.9969V2.79714Z" fill="#28D2E9"/>
<path d="M17.028 4.62109C24.207 4.62109 30.0532 10.4673 30.0532 17.6463C30.0532 24.8254 24.2136 30.6716 17.028 30.6716C9.84231 30.6716 4.00272 24.8254 4.00272 17.6463C4.00272 10.4673 9.84891 4.62109 17.028 4.62109ZM17.028 28.8108C23.1843 28.8108 28.1925 23.8027 28.1925 17.6463C28.1925 11.49 23.1843 6.48184 17.028 6.48184C10.8717 6.48184 5.86348 11.49 5.86348 17.6463C5.86348 23.8027 10.8717 28.8108 17.028 28.8108Z" fill="#28D2E9"/>
<path d="M17.0279 30.724C24.24 30.724 30.1125 24.858 30.1125 17.6393C30.1125 10.4207 24.2466 4.55469 17.0279 4.55469C9.80926 4.55469 3.94328 10.4207 3.94328 17.6393C3.94328 24.858 9.81586 30.724 17.0279 30.724ZM17.0279 4.67346C24.1806 4.67346 29.9938 10.4932 29.9938 17.6393C29.9938 24.7854 24.174 30.6052 17.0279 30.6052C9.88184 30.6052 4.06205 24.7854 4.06205 17.6393C4.06205 10.4932 9.87524 4.67346 17.0279 4.67346ZM17.0279 28.8632C23.2172 28.8632 28.2518 23.8286 28.2518 17.6393C28.2518 11.45 23.2172 6.41544 17.0279 6.41544C10.8386 6.41544 5.80403 11.45 5.80403 17.6393C5.81063 23.8286 10.8386 28.8632 17.0279 28.8632ZM17.0279 6.53421C23.1512 6.53421 28.133 11.516 28.133 17.6393C28.133 23.7626 23.1512 28.7444 17.0279 28.7444C10.9046 28.7444 5.9228 23.7626 5.9228 17.6393C5.9228 11.516 10.9046 6.53421 17.0279 6.53421Z" fill="#28D2E9"/>
</svg>
