<svg width="33" height="33" viewBox="0 0 33 33" fill="none" xmlns="http://www.w3.org/2000/svg">
<path d="M5.35756 32.9268C4.7841 32.9268 4.354 32.4967 4.354 31.9232V19.1637C4.354 18.5903 4.7841 18.1602 5.35756 18.1602C5.93102 18.1602 6.36112 18.5903 6.36112 19.1637V31.9232C6.36112 32.4967 5.93102 32.9268 5.35756 32.9268Z" fill="#28D2E9"/>
<path d="M5.35781 11.6393C4.78434 11.6393 4.35425 11.2092 4.35425 10.6358V1.67543C4.35425 1.10197 4.78434 0.671875 5.35781 0.671875C5.93127 0.671875 6.36136 1.10197 6.36136 1.67543V10.6358C6.36136 11.2092 5.93127 11.6393 5.35781 11.6393Z" fill="#28D2E9"/>
<path d="M16.3966 32.9317C15.8232 32.9317 15.3931 32.5016 15.3931 31.9281V27.6989C15.3931 27.1254 15.8232 26.6953 16.3966 26.6953C16.9701 26.6953 17.4002 27.1254 17.4002 27.6989V31.9281C17.4002 32.5016 16.9701 32.9317 16.3966 32.9317Z" fill="#28D2E9"/>
<path d="M16.3966 20.5997C15.8232 20.5997 15.3931 20.1696 15.3931 19.5961V1.67543C15.3931 1.10197 15.8232 0.671875 16.3966 0.671875C16.9701 0.671875 17.4002 1.10197 17.4002 1.67543V19.5244C17.4002 20.1696 16.9701 20.5997 16.3966 20.5997Z" fill="#28D2E9"/>
<path d="M27.4357 32.9307C26.8622 32.9307 26.4321 32.5006 26.4321 31.9272V13.6481C26.4321 13.0746 26.8622 12.6445 27.4357 12.6445C28.0091 12.6445 28.4392 13.0746 28.4392 13.6481V31.9272C28.5109 32.5006 28.0091 32.9307 27.4357 32.9307Z" fill="#28D2E9"/>
<path d="M27.4357 6.97995C26.8622 6.97995 26.4321 6.54985 26.4321 5.97639V1.67543C26.4321 1.10197 26.8622 0.671875 27.4357 0.671875C28.0091 0.671875 28.4392 1.10197 28.4392 1.67543V5.90471C28.5109 6.54985 28.0091 6.97995 27.4357 6.97995Z" fill="#28D2E9"/>
<path d="M27.4359 14.6512C24.7837 14.6512 22.5615 12.5007 22.5615 9.77677C22.5615 7.12451 24.712 4.90234 27.4359 4.90234C30.0882 4.90234 32.3104 7.05282 32.3104 9.77677C32.3104 12.5007 30.1599 14.6512 27.4359 14.6512ZM27.4359 6.98114C25.9306 6.98114 24.6403 8.19975 24.6403 9.77677C24.6403 11.2821 25.8589 12.5724 27.4359 12.5724C28.9413 12.5724 30.2316 11.3538 30.2316 9.77677C30.2316 8.27143 29.013 6.98114 27.4359 6.98114Z" fill="#28D2E9"/>
<path d="M16.3966 28.2684C13.7444 28.2684 11.5222 26.1179 11.5222 23.394C11.5222 20.7417 13.6727 18.5195 16.3966 18.5195C19.1206 18.5195 21.2711 20.67 21.2711 23.394C21.2711 26.0462 19.0489 28.2684 16.3966 28.2684ZM16.3966 20.5983C14.8913 20.5983 13.601 21.8169 13.601 23.394C13.601 24.8993 14.8196 26.1896 16.3966 26.1896C17.9737 26.1896 19.1923 24.971 19.1923 23.394C19.1923 21.8169 17.902 20.5983 16.3966 20.5983Z" fill="#28D2E9"/>
<path d="M5.35758 19.741C2.70532 19.741 0.483154 17.5906 0.483154 14.8666C0.483154 12.2143 2.63363 9.99219 5.35758 9.99219C8.08152 9.99219 10.232 12.1427 10.232 14.8666C10.232 17.5906 8.00984 19.741 5.35758 19.741ZM5.35758 12.071C3.85224 12.071 2.56195 13.2896 2.56195 14.8666C2.56195 16.3719 3.78056 17.6622 5.35758 17.6622C6.9346 17.6622 8.1532 16.4436 8.1532 14.8666C8.1532 13.3613 6.86291 12.071 5.35758 12.071Z" fill="#28D2E9"/>
</svg>
