<svg width="156" height="156" viewBox="0 0 156 156" fill="none" xmlns="http://www.w3.org/2000/svg">
<path d="M78 156C35.0049 156 0 120.995 0 78C0 35.0049 35.0049 0 78 0C120.995 0 156 35.0049 156 78C156 120.995 120.995 156 78 156ZM78 11.4146C41.2829 11.4146 11.4146 41.2829 11.4146 78C11.4146 114.717 41.2829 144.585 78 144.585C114.717 144.585 144.585 114.717 144.585 78C144.585 41.2829 114.717 11.4146 78 11.4146Z" fill="#28D2E9"/>
<path d="M66.0146 113.766C64.4927 113.766 63.161 113.195 62.2098 112.244L38.0488 89.7951C35.7658 87.7024 35.5756 84.0878 37.6682 81.8049C39.7609 79.522 43.3756 79.3317 45.6585 81.4244L65.4439 99.6878L105.776 50.7951C107.868 48.3219 111.293 47.9415 113.766 50.0342C116.239 52.1268 116.62 55.5513 114.527 58.0244L70.3902 111.483C69.439 112.624 67.917 113.385 66.3951 113.576C66.2048 113.766 66.2049 113.766 66.0146 113.766Z" fill="#28D2E9"/>
</svg>
