<svg width="150" height="151" viewBox="0 0 150 151" fill="none" xmlns="http://www.w3.org/2000/svg">
<path d="M148.797 119.854L121.689 72.8162C124.49 66.4843 126.066 59.4811 126.066 52.157C126.066 23.8236 103.043 0.800781 74.7097 0.800781C46.3762 0.800781 23.3535 23.8236 23.3535 52.157C23.3535 59.5103 24.9292 66.4843 27.7304 72.8162L0.622498 119.854C-0.311251 121.488 -0.194529 123.531 0.972658 125.048C2.13985 126.565 4.0657 127.207 5.87484 126.711L33.3037 119.329L40.5987 146.728C41.0947 148.567 42.6121 149.909 44.4796 150.142C44.6838 150.172 44.8881 150.201 45.0923 150.201C46.7556 150.201 48.3021 149.325 49.1483 147.866L74.7097 103.63L100.271 147.866C101.117 149.325 102.664 150.201 104.327 150.201C104.531 150.201 104.736 150.201 104.94 150.172C106.807 149.938 108.354 148.567 108.821 146.758L116.116 119.358L143.545 126.74C145.354 127.236 147.309 126.565 148.447 125.077C149.585 123.531 149.731 121.488 148.797 119.854ZM46.7264 133.393L41.1239 112.384C40.8029 111.188 40.0151 110.166 38.9354 109.524C37.8558 108.912 36.5719 108.736 35.3755 109.057L14.337 114.718L33.0995 82.1537C40.5403 92.4542 51.6578 99.895 64.5552 102.492L46.7264 133.393ZM32.691 52.1278C32.691 28.9592 51.541 10.1091 74.7097 10.1091C97.8784 10.1091 116.728 28.9592 116.728 52.1278C116.728 75.2965 97.8784 94.1466 74.7097 94.1466C51.541 94.1466 32.691 75.2965 32.691 52.1278ZM114.044 109.057C112.848 108.736 111.564 108.912 110.484 109.524C109.404 110.137 108.617 111.158 108.296 112.384L102.693 133.393L84.8351 102.463C97.7325 99.8658 108.85 92.425 116.291 82.1246L135.053 114.689L114.044 109.057Z" fill="#28D2E9"/>
<path d="M102.489 40.4812C101.993 38.9638 100.767 37.8258 99.2501 37.4465L86.0025 33.9741L78.7368 21.7478C77.0443 18.9174 72.3756 18.9174 70.7123 21.7478L63.4466 33.9741L50.199 37.4173C48.6525 37.8258 47.4561 38.9638 46.9309 40.452C46.4348 41.9693 46.7266 43.6034 47.7187 44.829L56.5894 55.9464L55.6264 70.4779C55.5097 72.0828 56.2684 73.6585 57.5815 74.5922C58.8946 75.526 60.6162 75.7011 62.1043 75.0883L74.71 69.7484L87.3156 75.0883C87.8992 75.3509 88.5411 75.4676 89.1539 75.4676C90.1168 75.4676 91.0506 75.1758 91.8676 74.6214C93.1807 73.6877 93.9394 72.112 93.8227 70.5071L92.8597 55.9756L101.73 44.8581C102.693 43.6326 102.985 41.9693 102.489 40.4812ZM84.4268 51.5695C83.6973 52.474 83.3472 53.6412 83.4055 54.7792L83.9891 63.5331L76.5483 60.3817C75.9647 60.1191 75.3227 60.0024 74.71 60.0024C74.0972 60.0024 73.4552 60.1191 72.8716 60.3817L65.4308 63.5331L66.0144 54.7792C66.102 53.612 65.7226 52.474 64.9931 51.5695L59.4782 44.6539L67.6193 42.5238C68.8157 42.2028 69.837 41.4441 70.4497 40.3937L74.6808 33.2738L78.9118 40.3937C79.5246 41.4441 80.5459 42.2028 81.7423 42.5238L89.8834 44.6539L84.4268 51.5695Z" fill="#28D2E9"/>
</svg>
