<svg width="156" height="51" viewBox="0 0 156 51" fill="none" xmlns="http://www.w3.org/2000/svg">
<path d="M14.8771 21.2539L18.0324 24.2655C12.0373 29.9874 10.3807 38.2692 12.9839 45.4969C7.30427 38.1939 7.93534 27.8793 14.8771 21.2539Z" fill="#28D2E9"/>
<path d="M10.3024 16.8945L13.4577 19.9061C7.46258 25.628 5.80602 33.9098 8.40918 41.1376C2.72956 33.8345 3.36063 23.52 10.3024 16.8945Z" fill="#28D2E9"/>
<path d="M5.72695 12.5273L8.88229 15.5389C2.88714 21.2609 1.23058 29.5426 3.83374 36.7704C-1.84588 29.4674 -1.21481 19.0775 5.72695 12.5273Z" fill="#28D2E9"/>
<path d="M38.306 29.7665L35.1506 26.7549C41.1458 21.033 42.8023 12.7512 40.1992 5.52344C45.8788 12.8265 45.2477 23.2163 38.306 29.7665Z" fill="#28D2E9"/>
<path d="M42.96 34.1337L39.8047 31.1221C45.7998 25.4001 47.4564 17.1184 44.8532 9.89062C50.454 17.1937 49.8229 27.5835 42.96 34.1337Z" fill="#28D2E9"/>
<path d="M47.5352 38.5712L44.3799 35.5596C50.375 29.8376 52.0316 21.5559 49.4284 14.3281C55.108 21.6312 54.477 31.9457 47.5352 38.5712Z" fill="#28D2E9"/>
<path d="M31.0487 14.3293L27.8933 17.3408C21.8982 11.6189 13.221 10.0378 5.64819 12.5223C13.2999 7.10152 24.1858 7.70383 31.0487 14.3293Z" fill="white"/>
<path d="M35.6239 9.96988L32.4685 12.9814C26.4734 7.25948 17.7962 5.67841 10.2234 8.16295C17.8751 2.74214 28.761 3.34446 35.6239 9.96988Z" fill="white"/>
<path d="M40.2779 5.60269L37.1226 8.61425C31.1274 2.89229 22.4503 1.31123 14.8774 3.79576C22.5291 -1.62504 33.3362 -1.02273 40.2779 5.60269Z" fill="white"/>
<path d="M22.135 36.6912L25.2903 33.6797C31.2855 39.4016 39.9627 40.9827 47.5355 38.4982C39.8838 43.919 29.0768 43.3167 22.135 36.6912Z" fill="white"/>
<path d="M17.5596 41.1327L20.7149 38.1211C26.7101 43.8431 35.3872 45.4241 42.9601 42.9396C35.3084 48.2851 24.5013 47.6828 17.5596 41.1327Z" fill="white"/>
<path d="M12.9841 45.5037L16.1395 42.4922C22.1346 48.2141 30.8118 49.7952 38.3846 47.3107C30.7329 52.7315 19.9259 52.1292 12.9841 45.5037Z" fill="white"/>
<path d="M72.6989 21.3371H70.1746V15.1634L67.8081 21.3371H65.5205V9.44141H67.9659V15.6151L70.4113 9.44141H72.62V21.3371H72.6989Z" fill="#28D2E9"/>
<path d="M81.6126 21.3371H79.1673V16.368H77.1163V21.3371H74.6709V9.44141H77.1163V14.1846H79.1673V9.44141H81.6126V21.3371Z" fill="#28D2E9"/>
<path d="M88.0023 15.0891L85.3991 21.2628H82.6382L85.3991 14.9386L82.9537 9.36719H85.5569L88.0023 15.0891ZM90.5265 21.3381H88.0811V9.44248H90.5265V21.3381ZM95.8906 21.3381H93.1297L90.5265 15.1644L92.893 9.44248H95.4962L93.0508 15.0139L95.8906 21.3381Z" fill="#28D2E9"/>
<path d="M102.596 21.3371H96.8374V9.44141H102.596V11.5495H99.3617V14.2599H102.123V16.368H99.3617V19.1537H102.596V21.3371Z" fill="#28D2E9"/>
<path d="M111.194 21.3371H108.749V16.368H106.698V21.3371H104.252V9.44141H106.698V14.1846H108.749V9.44141H111.194V21.3371Z" fill="#28D2E9"/>
<path d="M118.846 21.3371H113.087V9.44141H118.846V11.5495H115.612V14.2599H118.373V16.368H115.612V19.1537H118.846V21.3371Z" fill="#28D2E9"/>
<path d="M126.576 10.4202C127.129 11.0978 127.365 12.0012 127.365 13.2811C127.365 14.5611 127.129 15.4645 126.576 16.1421C126.024 16.8197 125.157 17.1209 123.894 17.1209H122.869V21.4123H120.424V9.44141H123.973C125.157 9.44141 126.103 9.74256 126.576 10.4202ZM124.841 13.8082C124.841 13.6576 124.841 13.4317 124.841 13.2059C124.841 12.98 124.841 12.7541 124.841 12.6035C124.841 12.453 124.762 12.3024 124.762 12.0765C124.683 11.9259 124.604 11.7754 124.447 11.6248C124.289 11.5495 124.131 11.4742 123.894 11.4742H122.869V14.7869H123.894C124.131 14.7869 124.289 14.7116 124.447 14.6363C124.604 14.5611 124.683 14.4105 124.762 14.1846C124.841 14.1093 124.841 13.9587 124.841 13.8082Z" fill="#28D2E9"/>
<path d="M135.885 21.3371H133.439V16.368H131.389V21.3371H128.943V9.44141H131.389V14.1846H133.439V9.44141H135.885V21.3371Z" fill="#28D2E9"/>
<path d="M144.088 14.7116C144.64 15.3892 144.877 16.2927 144.877 17.5726C144.877 18.8525 144.64 19.756 144.088 20.4336C143.536 21.1112 142.668 21.4123 141.406 21.4123H137.856V9.44141H140.302V13.7329H141.327C142.668 13.7329 143.536 14.034 144.088 14.7116ZM142.353 18.0996C142.353 17.9491 142.353 17.7232 142.353 17.4973C142.353 17.2715 142.353 17.0456 142.353 16.895C142.353 16.7444 142.274 16.5939 142.195 16.368C142.116 16.2174 142.037 16.0668 141.88 15.9163C141.722 15.841 141.485 15.7657 141.248 15.7657H140.302V19.0784H141.248C141.485 19.0784 141.722 19.0031 141.88 18.9278C142.037 18.8525 142.116 18.7019 142.195 18.4761C142.274 18.4008 142.353 18.2502 142.353 18.0996ZM148.348 21.3371H145.903V9.44141H148.348V21.3371Z" fill="#28D2E9"/>
<path d="M156 21.3371H150.241V9.44141H156V11.5495H152.766V14.2599H155.527V16.368H152.766V19.1537H156V21.3371Z" fill="#28D2E9"/>
<path d="M72.3835 33.4562C72.3046 34.5855 71.9891 35.489 71.2791 36.0913C70.648 36.6936 69.8592 36.9195 68.9126 36.9195C67.8082 36.9195 66.8616 36.543 66.1517 35.7148C65.7573 35.2631 65.5206 34.6608 65.3628 33.9079C65.284 33.155 65.2051 32.1763 65.2051 30.8211C65.2051 29.4659 65.284 28.4118 65.3628 27.7342C65.4417 26.9813 65.7573 26.4543 66.1517 25.9273C66.8616 25.0991 67.7294 24.7227 68.9126 24.7227C69.8592 24.7227 70.648 25.0238 71.2791 25.5508C71.9891 26.1531 72.3046 27.0566 72.3835 28.1859H69.9381C69.9381 27.7342 69.8592 27.4331 69.7803 27.2825C69.6226 26.9813 69.3859 26.8307 68.9126 26.8307C68.5182 26.8307 68.2027 26.9813 68.0449 27.2825C67.8082 27.6589 67.7294 28.8635 67.7294 30.7458C67.7294 32.628 67.8082 33.8326 68.0449 34.2091C68.2027 34.5102 68.5182 34.6608 68.9126 34.6608C69.307 34.6608 69.6226 34.5102 69.7803 34.2091C69.8592 33.9832 69.9381 33.682 69.9381 33.3056H72.3835V33.4562Z" fill="#28D2E9"/>
<path d="M80.9818 36.8488H78.5365V30.6751L76.1699 36.8488H73.8823V24.9531H76.3277V31.1268L78.7731 24.9531H80.9818V36.8488Z" fill="#28D2E9"/>
<path d="M89.738 33.4562C89.6591 34.5855 89.3436 35.489 88.6336 36.0913C88.0025 36.6936 87.2137 36.9195 86.2671 36.9195C85.1627 36.9195 84.2161 36.543 83.5062 35.7148C83.1118 35.2631 82.8751 34.6608 82.7173 33.9079C82.6385 33.155 82.5596 32.1763 82.5596 30.8211C82.5596 29.4659 82.6385 28.4118 82.7173 27.7342C82.7962 26.9813 83.1118 26.4543 83.5062 25.9273C84.2161 25.0991 85.0838 24.7227 86.2671 24.7227C87.2137 24.7227 88.0025 25.0238 88.6336 25.5508C89.3436 26.1531 89.6591 27.0566 89.738 28.1859H87.2926C87.2926 27.7342 87.2137 27.4331 87.1348 27.2825C86.977 26.9813 86.7404 26.8307 86.2671 26.8307C85.8727 26.8307 85.5571 26.9813 85.3994 27.2825C85.1627 27.6589 85.0838 28.8635 85.0838 30.7458C85.0838 32.628 85.1627 33.8326 85.3994 34.2091C85.5571 34.5102 85.8727 34.6608 86.2671 34.6608C86.6615 34.6608 86.977 34.5102 87.1348 34.2091C87.2137 33.9832 87.2926 33.682 87.2926 33.3056H89.738V33.4562Z" fill="#28D2E9"/>
<path d="M97.0738 27.0612H94.9439V36.7735H92.4985V27.0612H90.3687V24.9531H97.0738V27.0612Z" fill="#28D2E9"/>
<path d="M104.094 36.8488H98.3359V24.9531H104.094V27.0612H100.86V29.7716H103.621V31.8797H100.86V34.6654H104.094V36.8488Z" fill="#28D2E9"/>
<path d="M114.586 36.8488H112.141V30.6751L110.8 34.7407H109.538L108.197 30.6751V36.8488H105.672V24.9531H107.881L110.169 30.7504L112.456 24.9531H114.665V36.8488H114.586Z" fill="#28D2E9"/>
<path d="M122.711 30.2233C123.263 30.9009 123.5 31.8044 123.5 33.0843C123.5 34.3642 123.263 35.2677 122.711 35.9453C122.159 36.6229 121.291 36.9241 120.029 36.9241H116.479V24.9531H118.925V29.2446H119.95C121.291 29.2446 122.238 29.5457 122.711 30.2233ZM121.055 33.6113C121.055 33.4608 121.055 33.2349 121.055 33.009C121.055 32.7832 121.055 32.5573 121.055 32.4067C121.055 32.2561 120.976 32.1056 120.897 31.8797C120.818 31.7291 120.739 31.5785 120.581 31.428C120.424 31.3527 120.187 31.2774 119.95 31.2774H119.004V34.5901H119.95C120.187 34.5901 120.424 34.5148 120.581 34.4395C120.739 34.3642 120.818 34.2137 120.897 33.9878C120.976 33.9878 120.976 33.7619 121.055 33.6113ZM126.971 36.8488H124.526V24.9531H126.971V36.8488Z" fill="#28D2E9"/>
<path d="M67.7294 41.5888H66.7828V46.1062H65.9151V41.5888H64.9685V40.8359H67.7294V41.5888Z" fill="white"/>
<path d="M71.0427 41.9663C71.1216 42.2675 71.1216 42.7945 71.1216 43.4721C71.1216 44.1497 71.1216 44.6767 71.0427 44.9779C70.9638 45.2791 70.8849 45.5049 70.7272 45.7308C70.4905 46.0319 70.0961 46.1825 69.6228 46.1825C69.1495 46.1825 68.834 46.0319 68.5184 45.7308C68.3607 45.5049 68.2029 45.2791 68.2029 44.9779C68.124 44.6767 68.124 44.1497 68.124 43.4721C68.124 42.7945 68.124 42.2675 68.2029 41.9663C68.2818 41.6652 68.3607 41.364 68.5184 41.2135C68.7551 40.9123 69.1495 40.7617 69.6228 40.7617C70.0961 40.7617 70.4116 40.9123 70.7272 41.2135C70.8849 41.364 70.9638 41.6652 71.0427 41.9663ZM70.175 44.6767C70.175 44.4509 70.175 43.9991 70.175 43.4721C70.175 42.9451 70.175 42.5687 70.175 42.2675C70.175 41.9663 70.0961 41.8158 70.0172 41.6652C69.9383 41.5146 69.7806 41.4393 69.6228 41.4393C69.465 41.4393 69.3073 41.5146 69.2284 41.6652C69.0706 41.8911 69.0706 42.4181 69.0706 43.3968C69.0706 44.3756 69.1495 44.9779 69.2284 45.1285C69.3073 45.2791 69.465 45.3543 69.6228 45.3543C69.7806 45.3543 69.9383 45.2791 70.0172 45.1285C70.0961 45.1285 70.175 44.9026 70.175 44.6767Z" fill="white"/>
<path d="M74.6711 42.417C74.6711 42.944 74.5922 43.3958 74.3556 43.6216C74.1189 43.8475 73.8034 43.9981 73.2512 43.9981H72.699V46.1062H71.8313V40.8359H73.2512C73.7245 40.8359 74.1189 40.9865 74.3556 41.2124C74.5922 41.4382 74.6711 41.89 74.6711 42.417ZM73.7245 43.0946C73.8034 42.944 73.8823 42.7182 73.8823 42.417C73.8823 42.1158 73.8034 41.89 73.7245 41.7394C73.6456 41.5888 73.4878 41.5135 73.2512 41.5135H72.7779V43.2452H73.2512C73.4878 43.2452 73.6456 43.2452 73.7245 43.0946Z" fill="white"/>
<path d="M77.7476 41.5888H76.3277V46.1062H75.46V40.8359H77.7476V41.5888Z" fill="white"/>
<path d="M81.1394 41.9663C81.2183 42.2675 81.2183 42.7945 81.2183 43.4721C81.2183 44.1497 81.2183 44.6767 81.1394 44.9779C81.0605 45.2791 80.9816 45.5049 80.8239 45.7308C80.5872 46.0319 80.1928 46.1825 79.7195 46.1825C79.2462 46.1825 78.9307 46.0319 78.6151 45.7308C78.4574 45.5049 78.2996 45.2791 78.2996 44.9779C78.2207 44.6767 78.2207 44.1497 78.2207 43.4721C78.2207 42.7945 78.2207 42.2675 78.2996 41.9663C78.3785 41.6652 78.4574 41.364 78.6151 41.2135C78.8518 40.9123 79.2462 40.7617 79.7195 40.7617C80.1928 40.7617 80.5083 40.9123 80.8239 41.2135C80.9028 41.364 81.0605 41.6652 81.1394 41.9663ZM80.2717 44.6767C80.2717 44.4509 80.2717 43.9991 80.2717 43.4721C80.2717 42.9451 80.2717 42.5687 80.2717 42.2675C80.2717 41.9663 80.1928 41.8158 80.1139 41.6652C80.035 41.5146 79.8773 41.4393 79.7195 41.4393C79.5617 41.4393 79.404 41.5146 79.3251 41.6652C79.1673 41.8911 79.1673 42.4181 79.1673 43.3968C79.1673 44.3756 79.2462 44.9779 79.3251 45.1285C79.404 45.2791 79.5617 45.3543 79.7195 45.3543C79.8773 45.3543 80.035 45.2791 80.1139 45.1285C80.1928 45.1285 80.2717 44.9026 80.2717 44.6767Z" fill="white"/>
<path d="M84.7681 44.6004C84.7681 44.9015 84.7681 45.1274 84.6892 45.3533C84.6103 45.5038 84.5314 45.6544 84.3736 45.805C84.137 46.0309 83.7426 46.1062 83.2693 46.1062H81.8494V40.8359H83.2693C83.7426 40.8359 84.137 40.9112 84.3736 41.1371C84.5314 41.2877 84.6103 41.4382 84.6103 41.5888C84.6892 41.7394 84.6892 41.9653 84.6892 42.2664C84.6892 42.6429 84.6103 43.0193 84.3736 43.1699C84.2948 43.2452 84.2159 43.3205 84.0581 43.3205C84.2159 43.3958 84.2948 43.471 84.3736 43.5463C84.6892 43.7722 84.7681 44.0734 84.7681 44.6004ZM83.9003 42.2664C83.9003 42.0406 83.8215 41.8147 83.7426 41.7394C83.6637 41.6641 83.5059 41.5888 83.2693 41.5888H82.796V43.0193H83.2693C83.5059 43.0193 83.6637 42.944 83.7426 42.8687C83.8215 42.7182 83.9003 42.4923 83.9003 42.2664ZM83.9003 44.5251C83.9003 44.2239 83.8215 43.9981 83.7426 43.9228C83.6637 43.7722 83.5059 43.6969 83.2693 43.6969H82.796V45.3533H83.1904C83.427 45.3533 83.5848 45.278 83.6637 45.2027C83.9003 45.0521 83.9003 44.8262 83.9003 44.5251Z" fill="white"/>
<path d="M88.3967 41.9663C88.4756 42.2675 88.4756 42.7945 88.4756 43.4721C88.4756 44.1497 88.4756 44.6767 88.3967 44.9779C88.3178 45.2791 88.2389 45.5049 88.0812 45.7308C87.8445 46.0319 87.4501 46.1825 86.9768 46.1825C86.5035 46.1825 86.188 46.0319 85.8724 45.7308C85.7147 45.5049 85.5569 45.2791 85.5569 44.9779C85.478 44.6767 85.478 44.1497 85.478 43.4721C85.478 42.7945 85.478 42.2675 85.5569 41.9663C85.6358 41.6652 85.7147 41.364 85.8724 41.2135C86.1091 40.9123 86.5035 40.7617 86.9768 40.7617C87.4501 40.7617 87.7656 40.9123 88.0812 41.2135C88.2389 41.364 88.3178 41.6652 88.3967 41.9663ZM87.529 44.6767C87.529 44.4509 87.529 43.9991 87.529 43.4721C87.529 42.9451 87.529 42.5687 87.529 42.2675C87.529 41.9663 87.4501 41.8158 87.3712 41.6652C87.2923 41.5146 87.1346 41.4393 86.9768 41.4393C86.819 41.4393 86.6613 41.5146 86.5824 41.6652C86.4246 41.8911 86.4246 42.4181 86.4246 43.3968C86.4246 44.3756 86.5035 44.9779 86.5824 45.1285C86.6613 45.2791 86.819 45.3543 86.9768 45.3543C87.1346 45.3543 87.2923 45.2791 87.3712 45.1285C87.4501 45.1285 87.529 44.9026 87.529 44.6767Z" fill="white"/>
<path d="M92.9724 46.1062H92.1047V42.7934L91.3159 44.9768H90.8426L90.1326 42.8687V46.1062H89.2649V40.8359H90.0537L91.1581 43.6216L92.2625 40.8359H93.0513V46.1062H92.9724Z" fill="white"/>
<path d="M96.6799 41.9663C96.7588 42.2675 96.7588 42.7945 96.7588 43.4721C96.7588 44.1497 96.7588 44.6767 96.6799 44.9779C96.601 45.2791 96.5221 45.5049 96.3644 45.7308C96.1277 46.0319 95.7333 46.1825 95.26 46.1825C94.7867 46.1825 94.4712 46.0319 94.1556 45.7308C93.9979 45.5049 93.8401 45.2791 93.8401 44.9779C93.7612 44.6767 93.7612 44.1497 93.7612 43.4721C93.7612 42.7945 93.7612 42.2675 93.8401 41.9663C93.919 41.6652 93.9979 41.364 94.1556 41.2135C94.3923 40.9123 94.7867 40.7617 95.26 40.7617C95.7333 40.7617 96.0488 40.9123 96.3644 41.2135C96.5221 41.364 96.601 41.6652 96.6799 41.9663ZM95.8122 44.6767C95.8122 44.4509 95.8122 43.9991 95.8122 43.4721C95.8122 42.9451 95.8122 42.5687 95.8122 42.2675C95.8122 41.9663 95.7333 41.8158 95.6544 41.6652C95.5755 41.5146 95.4178 41.4393 95.26 41.4393C95.1022 41.4393 94.9445 41.5146 94.8656 41.6652C94.7078 41.8911 94.7078 42.4181 94.7078 43.3968C94.7078 44.3756 94.7867 44.9779 94.8656 45.1285C94.9445 45.2791 95.1022 45.3543 95.26 45.3543C95.4178 45.3543 95.5755 45.2791 95.6544 45.1285C95.7333 45.1285 95.8122 44.9026 95.8122 44.6767Z" fill="white"/>
<path d="M100.387 46.1062H99.5197V43.7722H98.4153V46.1062H97.5476V40.8359H98.4153V43.0946H99.5197V40.8359H100.387V46.1062Z" fill="white"/>
<path d="M103.7 41.5888H102.754V46.1062H101.886V41.5888H100.939V40.8359H103.7V41.5888Z" fill="white"/>
<path d="M107.171 46.1062H106.225L105.988 45.0521H104.726L104.489 46.1062H103.542L104.884 40.8359H105.751L107.171 46.1062ZM105.909 44.2992L105.436 42.0406L104.962 44.2992H105.909Z" fill="white"/>
<path d="M108.276 46.1072H107.25L108.67 43.3215L107.408 40.837H108.355L109.617 43.3968L108.276 46.1072ZM110.484 46.1072H109.617V40.837H110.484V46.1072ZM112.851 46.1072H111.904L110.563 43.3215L111.825 40.7617H112.772L111.51 43.2463L112.851 46.1072Z" fill="white"/>
<path d="M116.085 46.1062H115.217V43.7722H114.113V46.1062H113.245V40.8359H114.113V43.0946H115.217V40.8359H116.085V46.1062Z" fill="white"/>
<path d="M120.187 46.1062H119.24L119.003 45.0521H117.741L117.505 46.1062H116.558L117.899 40.8359H118.767L120.187 46.1062ZM118.925 44.2992L118.451 42.0406L117.978 44.2992H118.925Z" fill="white"/>
<path d="M121.37 46.1062H120.424L121.212 43.7722C120.976 43.6216 120.818 43.471 120.739 43.2452C120.66 43.0193 120.581 42.7182 120.581 42.417C120.581 41.89 120.66 41.4382 120.897 41.2124C121.134 40.9865 121.449 40.8359 122.001 40.8359H123.421V46.1062H122.553V43.9228H122.08L121.37 46.1062ZM121.686 41.7394C121.607 41.89 121.607 42.1158 121.607 42.3417C121.607 42.5676 121.607 42.7934 121.686 42.944C121.765 43.0946 121.922 43.1699 122.08 43.1699H122.632V41.5135H122.08C121.843 41.5888 121.765 41.6641 121.686 41.7394Z" fill="white"/>
<path d="M126.734 46.1072H125.867V40.837H126.734V46.1072ZM129.022 46.1072H128.075L126.734 43.3215L127.997 40.7617H128.943L127.681 43.2463L129.022 46.1072Z" fill="white"/>
<path d="M132.256 41.9663C132.335 42.2675 132.335 42.7945 132.335 43.4721C132.335 44.1497 132.335 44.6767 132.256 44.9779C132.177 45.2791 132.098 45.5049 131.941 45.7308C131.704 46.0319 131.31 46.1825 130.836 46.1825C130.363 46.1825 130.047 46.0319 129.732 45.7308C129.574 45.5049 129.416 45.2791 129.416 44.9779C129.337 44.6767 129.337 44.1497 129.337 43.4721C129.337 42.7945 129.337 42.2675 129.416 41.9663C129.495 41.6652 129.574 41.364 129.732 41.2135C129.968 40.9123 130.363 40.7617 130.836 40.7617C131.31 40.7617 131.625 40.9123 131.941 41.2135C132.098 41.364 132.177 41.6652 132.256 41.9663ZM131.388 44.6767C131.388 44.4509 131.388 43.9991 131.388 43.4721C131.388 42.9451 131.388 42.5687 131.388 42.2675C131.388 41.9663 131.31 41.8158 131.231 41.6652C131.152 41.5146 130.994 41.4393 130.836 41.4393C130.678 41.4393 130.521 41.5146 130.442 41.6652C130.284 41.8911 130.284 42.4181 130.284 43.3968C130.284 44.3756 130.363 44.9779 130.442 45.1285C130.521 45.2791 130.678 45.3543 130.836 45.3543C130.994 45.3543 131.152 45.2791 131.231 45.1285C131.31 45.1285 131.388 44.9026 131.388 44.6767Z" fill="white"/>
<path d="M136.831 46.1062H135.964V42.7934L135.175 44.9768H134.701L133.991 42.8687V46.1062H133.124V40.8359H133.913L135.017 43.6216L136.121 40.8359H136.91V46.1062H136.831Z" fill="white"/>
<path d="M140.539 46.1062H139.671V41.5888H138.567V46.1062H137.699V40.8359H140.539V46.1062Z" fill="white"/>
<path d="M144.641 46.1062H143.694L143.458 45.0521H142.195L141.959 46.1062H141.012L142.353 40.8359H143.221L144.641 46.1062ZM143.379 44.2992L142.905 42.0406L142.432 44.2992H143.379Z" fill="white"/>
<path d="M148.033 46.1062H147.165V43.7722H146.061V46.1062H145.193V40.8359H146.061V43.0946H147.165V40.8359H148.033V46.1062Z" fill="white"/>
<path d="M149.689 46.1062H148.9V40.8359H149.768V44.0734L151.03 40.8359H151.819V46.1062H150.951V42.8687L149.689 46.1062Z" fill="white"/>
<path d="M153.476 46.1062H152.529L153.318 43.7722C153.081 43.6216 152.924 43.471 152.845 43.2452C152.766 43.0193 152.687 42.7182 152.687 42.417C152.687 41.89 152.766 41.4382 153.003 41.2124C153.239 40.9865 153.555 40.8359 154.107 40.8359H155.527V46.1062H154.659V43.9228H154.186L153.476 46.1062ZM153.713 41.7394C153.634 41.89 153.634 42.1158 153.634 42.3417C153.634 42.5676 153.634 42.7934 153.713 42.944C153.791 43.0946 153.949 43.1699 154.107 43.1699H154.659V41.5135H154.107C153.949 41.5888 153.791 41.6641 153.713 41.7394Z" fill="white"/>
</svg>
