<svg width="17" height="17" viewBox="0 0 17 17" fill="none" xmlns="http://www.w3.org/2000/svg">
<path d="M5.97833 3.87778L2.1052 0L0.885886 1.22078C0.288181 1.81921 -0.0226252 2.63306 0.00128298 3.49479C0.16864 7.01351 1.65095 10.3647 4.1374 12.8541C6.57603 15.2957 9.82755 16.7558 13.2703 16.9713L13.4855 16.9952C14.3462 17.0431 15.183 16.7319 15.8046 16.1095L17 14.9127L12.9117 10.8195L11.0708 12.6626C10.8795 12.8541 10.5926 12.9499 10.3057 12.8781C8.75168 12.519 7.3411 11.7291 6.21741 10.6041C5.14154 9.52689 4.40039 8.21036 4.01786 6.75021L3.94613 6.51084C3.87441 6.2236 3.94613 5.93635 4.16131 5.72092L5.97833 3.87778Z" fill="#28D2E9"/>
</svg>
